<?xml version="1.0" encoding="UTF-8" standalone="no"?>
<svg
        id="Warstwa_2"
        viewBox="0 0 392.39999 196.07001"
        version="1.1"
        width="392.39999"
        height="196.07001"
        xmlns="http://www.w3.org/2000/svg"
>
  <defs
     id="defs1">
    <style
       id="style1"> .cls-1 { fill: none; } .cls-2 { fill: #e6e6e4; } .cls-3 { fill: #f6b42c; } .cls-4 { fill: #aa6419; } .cls-5 { fill: #a6a1a0; }</style>
  </defs>
  <g
     id="Warstwa_1-2"
     transform="translate(-51.82,-51.82)">
    <g
       id="g31">
      <g
         id="g30">
        <g
           id="g24">
          <polygon
             class="cls-2"
             points="444.22,119.91 248.02,54.32 248.02,63.99 444.22,124.52 "
             id="polygon1" />
          <polygon
             class="cls-2"
             points="417.22,125.85 248.02,76.23 248.02,83.21 417.22,130.23 "
             id="polygon2" />
          <polygon
             class="cls-2"
             points="397.42,133.85 248.02,96.78 248.02,103.67 397.42,137.28 "
             id="polygon3" />
          <polygon
             class="cls-2"
             points="248.02,121.91 374.02,145.24 374.02,141.64 248.02,116.44 248.02,117.74 "
             id="polygon4" />
          <polygon
             class="cls-2"
             points="338.02,150.49 248.02,135.64 248.02,141.04 338.02,153.64 "
             id="polygon5" />
          <polygon
             class="cls-2"
             points="327.22,161.44 248.02,152.15 248.02,157.03 327.22,164.75 "
             id="polygon6" />
          <polygon
             class="cls-2"
             points="320.02,173.5 248.02,167.76 248.02,172.74 320.02,176.76 "
             id="polygon7" />
          <polygon
             class="cls-2"
             points="327.22,186.63 248.02,181.56 248.02,186.88 327.22,190.56 "
             id="polygon8" />
          <polygon
             class="cls-5"
             points="51.82,124.52 51.82,119.91 180.84,76.78 180.84,84.72 "
             id="polygon9" />
          <polygon
             class="cls-5"
             points="230,60.35 248.02,54.32 248.02,63.99 205.34,77.16 205.34,68.59 221.29,63.26 "
             id="polygon10" />
          <polygon
             class="cls-5"
             points="78.82,130.23 78.82,125.85 180.84,95.93 180.84,101.88 "
             id="polygon11" />
          <polygon
             class="cls-5"
             points="205.34,88.75 248.02,76.23 248.02,83.21 205.34,95.07 "
             id="polygon12" />
          <polygon
             class="cls-5"
             points="98.62,137.29 98.62,133.85 180.84,113.45 180.84,118.78 "
             id="polygon13" />
          <polygon
             class="cls-5"
             points="205.34,107.37 248.02,96.79 248.02,103.66 205.34,113.27 "
             id="polygon14" />
          <polygon
             class="cls-5"
             points="122.02,145.24 122.02,141.63 180.84,129.87 180.84,134.35 "
             id="polygon15" />
          <polygon
             class="cls-5"
             points="205.34,124.97 248.02,116.44 248.02,121.91 205.34,129.82 "
             id="polygon16" />
          <polygon
             class="cls-5"
             points="158.02,153.64 158.02,150.49 180.84,146.73 180.84,150.44 "
             id="polygon17" />
          <polygon
             class="cls-5"
             points="205.34,142.68 248.02,135.64 248.02,141.04 205.34,147.02 "
             id="polygon18" />
          <polygon
             class="cls-5"
             points="168.82,164.75 168.82,161.44 180.84,160.03 180.84,163.58 "
             id="polygon19" />
          <polygon
             class="cls-5"
             points="205.34,157.16 248.02,152.15 248.02,157.03 205.34,161.19 "
             id="polygon20" />
          <polygon
             class="cls-5"
             points="176.02,176.75 176.02,173.5 180.84,173.12 180.84,176.48 "
             id="polygon21" />
          <polygon
             class="cls-5"
             points="205.34,171.16 248.02,167.75 248.02,172.75 205.34,175.12 "
             id="polygon22" />
          <polygon
             class="cls-5"
             points="168.82,190.56 168.82,186.63 180.84,185.86 180.84,190 "
             id="polygon23" />
          <polygon
             class="cls-5"
             points="205.34,184.29 248.02,181.56 248.02,186.89 205.34,188.87 "
             id="polygon24" />
        </g>
        <g
           id="g29">
          <polygon
             class="cls-3"
             points="183.54,246.08 183.54,225.39 197.04,225.39 197.04,247.89 "
             id="polygon25" />
          <polygon
             class="cls-4"
             points="198.82,247.89 198.82,225.39 202.64,225.39 202.64,247.1 "
             id="polygon26" />
          <polygon
             class="cls-3"
             points="183.52,59.22 197.02,51.82 197.02,221.02 183.52,221.02 "
             id="polygon27" />
          <polygon
             class="cls-4"
             points="198.82,51.82 230,60.35 221.29,63.26 202.64,58.36 202.64,221.02 198.82,221.02 "
             id="polygon28" />
          <polygon
             class="cls-4"
             points="230,60.35 230.01,60.35 221.29,63.26 "
             id="polygon29" />
        </g>
      </g>
      <rect
         class="cls-1"
         width="496.04001"
         height="299.70999"
         id="rect30"
         x="0"
         y="0" />
    </g>
  </g>
</svg>
